<?xml version="1.0" encoding="UTF-8" standalone="no"?>
<!-- Created with Inkscape (http://www.inkscape.org/) -->

<svg
   version="1.1"
   id="svg5703"
   xml:space="preserve"
   width="682.66669"
   height="682.66669"
   viewBox="0 0 682.66669 682.66669"
   xmlns="http://www.w3.org/2000/svg"
   xmlns:svg="http://www.w3.org/2000/svg"><defs
     id="defs5707"><clipPath
       clipPathUnits="userSpaceOnUse"
       id="clipPath5717"><path
         d="M 0,512 H 512 V 0 H 0 Z"
         id="path5715" /></clipPath></defs><g
     id="g5709"
     transform="matrix(1.3333333,0,0,-1.3333333,0,682.66667)"><g
       id="g5711"><g
         id="g5713"
         clip-path="url(#clipPath5717)"><g
           id="g5719"
           transform="translate(126.2178,183.4292)"><path
             d="M 0,0 C 19.906,-10.249 37.566,-16.878 50.544,-21"
             style="fill:none;stroke:#000000;stroke-width:15;stroke-linecap:round;stroke-linejoin:round;stroke-miterlimit:10;stroke-dasharray:none;stroke-opacity:1"
             id="path5721" /></g><g
           id="g5723"
           transform="translate(339.2939,311.293)"><path
             d="m 0,0 v -75.545 c 0,-3.179 -0.953,-6.368 -2.849,-9.076"
             style="fill:none;stroke:#000000;stroke-width:15;stroke-linecap:round;stroke-linejoin:round;stroke-miterlimit:10;stroke-dasharray:none;stroke-opacity:1"
             id="path5725" /></g><g
           id="g5727"
           transform="translate(59.5371,311.292)"><path
             d="m 0,0 v -75.546 c 0,-4.533 1.931,-9.074 5.784,-12.248 8.473,-6.99 16.96,-13.284 25.309,-18.945"
             style="fill:none;stroke:#000000;stroke-width:15;stroke-linecap:round;stroke-linejoin:round;stroke-miterlimit:10;stroke-dasharray:none;stroke-opacity:1"
             id="path5729" /></g><g
           id="g5731"
           transform="translate(152.5098,487.1201)"><path
             d="m 0,0 c 20,7.25 35.01,11.03 42.2,12.64 3.1,0.69 6.31,0.69 9.41,0 19.911,-4.46 99.84,-25.51 179.281,-91.03 10.569,-8.73 10.569,-24.89 0,-33.62 -79.441,-65.52 -159.37,-86.57 -179.281,-91.03 -3.1,-0.69 -6.31,-0.69 -9.41,0 -19.91,4.46 -99.84,25.51 -179.28,91.03 -10.569,8.73 -10.569,24.89 0,33.62 38.75,31.96 77.62,53.34 109.58,67.37"
             style="fill:none;stroke:#000000;stroke-width:15;stroke-linecap:round;stroke-linejoin:round;stroke-miterlimit:10;stroke-dasharray:none;stroke-opacity:1"
             id="path5733" /></g><g
           id="g5735"
           transform="translate(226.124,391.9204)"><path
             d="m 0,0 c 0,9.361 -11.958,16.95 -26.709,16.95 -14.751,0 -26.71,-7.589 -26.71,-16.95 0,-9.361 11.959,-16.95 26.71,-16.95 C -11.958,-16.95 0,-9.361 0,0 Z"
             style="fill:none;stroke:#000000;stroke-width:15;stroke-linecap:round;stroke-linejoin:round;stroke-miterlimit:10;stroke-dasharray:none;stroke-opacity:1"
             id="path5737" /></g><g
           id="g5739"
           transform="translate(391.3291,391.9199)"><path
             d="m 0,0 v -31.61 c 0,-6.224 -2.641,-12.449 -7.931,-16.813 -79.446,-65.521 -159.363,-86.574 -179.272,-91.03 -3.105,-0.687 -6.318,-0.687 -9.422,0 -19.91,4.456 -99.827,25.509 -179.272,91.03 -5.29,4.364 -7.932,10.589 -7.932,16.813 V 0"
             style="fill:none;stroke:#000000;stroke-width:15;stroke-linecap:round;stroke-linejoin:round;stroke-miterlimit:10;stroke-dasharray:none;stroke-opacity:1"
             id="path5741" /></g><g
           id="g5743"
           transform="translate(179.7754,380.4351)"><path
             d="m 0,0 -74.157,-63.16 v -66.054"
             style="fill:none;stroke:#000000;stroke-width:15;stroke-linecap:round;stroke-linejoin:round;stroke-miterlimit:10;stroke-dasharray:none;stroke-opacity:1"
             id="path5745" /></g><g
           id="g5747"
           transform="translate(121.0703,235.7695)"><path
             d="m 0,0 c 0,8.534 -6.918,15.452 -15.452,15.452 -8.533,0 -15.451,-6.918 -15.451,-15.452 0,-8.534 6.918,-15.452 15.451,-15.452 C -6.918,-15.452 0,-8.534 0,0 Z"
             style="fill:none;stroke:#000000;stroke-width:15;stroke-linecap:round;stroke-linejoin:round;stroke-miterlimit:10;stroke-dasharray:none;stroke-opacity:1"
             id="path5749" /></g><g
           id="g5751"
           transform="translate(126.2656,181.939)"><path
             d="m 0,0 c 0,11.403 -9.244,38.379 -20.647,38.379 -11.404,0 -20.648,-26.976 -20.648,-38.379 0,-11.403 9.244,-20.647 20.648,-20.647 C -9.244,-20.647 0,-11.403 0,0 Z"
             style="fill:none;stroke:#000000;stroke-width:15;stroke-linecap:round;stroke-linejoin:round;stroke-miterlimit:10;stroke-dasharray:none;stroke-opacity:1"
             id="path5753" /></g><g
           id="g5755"
           transform="translate(184.9111,102.0298)"><path
             d="M 0,0 C -12.178,30.267 -33.234,50.302 -47.031,44.751 -60.828,39.2 -62.141,10.164 -49.963,-20.103 -37.785,-50.369 -16.729,-70.405 -2.932,-64.854 10.865,-59.302 12.178,-30.266 0,0 Z"
             style="fill:none;stroke:#000000;stroke-width:15;stroke-linecap:round;stroke-linejoin:round;stroke-miterlimit:10;stroke-dasharray:none;stroke-opacity:1"
             id="path5757" /></g><g
           id="g5759"
           transform="translate(137.8799,146.7798)"><path
             d="m 0,0 311.25,125.23 c 13.8,5.55 34.851,-14.48 47.03,-44.75 12.18,-30.27 10.87,-59.3 -2.929,-64.85 L 324.05,3.04"
             style="fill:none;stroke:#000000;stroke-width:15;stroke-linecap:round;stroke-linejoin:round;stroke-miterlimit:10;stroke-dasharray:none;stroke-opacity:1"
             id="path5761" /></g><g
           id="g5763"
           transform="translate(434.3896,138.7402)"><path
             d="M 0,0 -252.409,-101.56"
             style="fill:none;stroke:#000000;stroke-width:15;stroke-linecap:round;stroke-linejoin:round;stroke-miterlimit:10;stroke-dasharray:none;stroke-opacity:1"
             id="path5765" /></g><g
           id="g5767"
           transform="translate(245.666,190.1489)"><path
             d="m 0,0 c 13.797,5.551 34.854,-14.484 47.031,-44.751 12.178,-30.267 10.865,-59.302 -2.931,-64.853 l 78.263,31.489 c 13.797,5.552 15.11,34.587 2.932,64.854 C 113.117,17.005 92.061,37.041 78.264,31.49 Z"
             style="fill:none;stroke:#000000;stroke-width:15;stroke-linecap:round;stroke-linejoin:round;stroke-miterlimit:10;stroke-dasharray:none;stroke-opacity:1"
             id="path5769" /></g><g
           id="g5771"
           transform="translate(374.6807,44.356)"><path
             d="m 0,0 -52.733,13.96 -28.37,-46.592 -24.363,60.552 81.103,32.632 z"
             style="fill:none;stroke:#000000;stroke-width:15;stroke-linecap:round;stroke-linejoin:round;stroke-miterlimit:10;stroke-dasharray:none;stroke-opacity:1"
             id="path5773" /></g></g></g></g></svg>
